# xmcd CD database file
# Copyright (C) 2011 Ti Kan
# 
# Track frame offsets:
#     150
#     14706
#     28861
#     39012
#     62899
#     77616
#     95636
#     132484
#     150726
#     160792
#     184517
#     204079
#     222737
#     241264
#     260450
# 
# Disc length: 3966 seconds
# 
# Revision: 1
# Processed by: cddbd v1.5.2PL0 Copyright (c) Steve Scherf et al.
# Submitted via: DiscPlay 4.0.4
# 
DISCID=c90f7c0f
DTITLE=Various Artist - Rock Sound 148
DYEAR=1900
DGENRE=
TTITLE0=The Ghost Of Eddie
TTITLE1=Overtime Is A Crime
TTITLE2=Shed
TTITLE3=Search:Party:Animal
TTITLE4=Sleep River Sleep
TTITLE5=Quake
TTITLE6=Communal Blood
TTITLE7=Barcelona
TTITLE8=Chico De Mayo
TTITLE9=Chapter, Verse
TTITLE10=Answers
TTITLE11=Game Over
TTITLE12=Thief
TTITLE13=The Last Martyrs
TTITLE14=Violet
EXTD=
EXTT0=
EXTT1=
EXTT2=
EXTT3=
EXTT4=
EXTT5=
EXTT6=
EXTT7=
EXTT8=
EXTT9=
EXTT10=
EXTT11=
EXTT12=
EXTT13=
EXTT14=
PLAYORDER=
